<?xml version="1.0" encoding="UTF-8"?>
<svg xmlns="http://www.w3.org/2000/svg" xmlns:xlink="http://www.w3.org/1999/xlink" width="32px" height="8px" viewBox="0 0 30 8" version="1.1">
<g id="surface1">
<path style=" stroke:none;fill-rule:nonzero;fill:rgb(100%,100%,100%);fill-opacity:1;" d="M 0.882812 3.554688 C 0.640625 3.554688 0.441406 3.753906 0.441406 4 C 0.441406 4.246094 0.640625 4.445312 0.882812 4.445312 Z M 29.429688 4.3125 C 29.601562 4.140625 29.601562 3.859375 29.429688 3.6875 L 26.621094 0.855469 C 26.449219 0.683594 26.171875 0.683594 26 0.855469 C 25.824219 1.03125 25.824219 1.3125 26 1.484375 L 28.492188 4 L 26 6.515625 C 25.824219 6.6875 25.824219 6.96875 26 7.144531 C 26.171875 7.316406 26.449219 7.316406 26.621094 7.144531 Z M 0.882812 4.445312 L 29.117188 4.445312 L 29.117188 3.554688 L 0.882812 3.554688 Z M 0.882812 4.445312 "/>
</g>
</svg>
